<svg width="53" height="40" viewBox="0 0 53 40" fill="none" xmlns="http://www.w3.org/2000/svg">
<path opacity="0.4" d="M52.1046 7.09927V25.978C52.1046 29.4908 49.4048 32.3273 46.0613 32.3273H37.354C36.5137 32.3273 35.6912 32.6466 35.0654 33.2102L28.1461 39.4279C27.3057 40.1793 26.0899 40.1793 25.2496 39.4279L18.3302 33.2102C17.7044 32.6466 16.882 32.3273 16.0416 32.3273H7.33429C3.99082 32.3273 1.29102 29.4908 1.29102 25.978V7.09927C1.29102 3.58651 3.99082 0.75 7.33429 0.75H46.0613C49.4048 0.75 52.1046 3.58651 52.1046 7.09927Z" fill="#B2B2B2"/>
<path d="M50.8136 5.56031V26.017C50.8136 29.0977 48.4535 31.5773 45.5212 31.5773H35.6875C35.0796 31.5773 34.5075 31.8027 34.0605 32.216L26.9981 38.5464C26.0862 39.373 24.7274 39.373 23.8155 38.5464L16.7531 32.216C16.3061 31.8027 15.734 31.5773 15.1261 31.5773H5.29234C2.3601 31.5773 0 29.0977 0 26.017V5.56031C0 2.49838 2.3601 0 5.29234 0H45.5212C48.4535 0 50.8136 2.49838 50.8136 5.56031V5.56031Z" fill="#F44E66"/>
<path d="M25.5007 6.59375C20.5856 6.59375 16.5944 10.585 16.5944 15.5006C16.5974 17.0736 17.0248 18.613 17.8167 19.9699L16.6095 23.5916C16.5321 23.8237 16.7531 24.0446 16.9852 23.9673L20.4492 22.8129C21.9338 23.8407 23.6915 24.4035 25.5001 24.4062C30.4155 24.4061 34.4064 20.4152 34.4064 15.5C34.4063 10.5846 30.4158 6.59386 25.5007 6.59375ZM22.5244 14.6094C23.0127 14.6094 23.415 15.0117 23.415 15.5C23.415 15.9884 23.0127 16.3906 22.5244 16.3906C22.036 16.3906 21.6343 15.9884 21.6343 15.5C21.6343 15.0117 22.036 14.6094 22.5244 14.6094ZM25.5007 14.6094C25.989 14.6094 26.3913 15.0117 26.3913 15.5C26.3913 15.9884 25.989 16.3906 25.5007 16.3906C25.0123 16.3906 24.6101 15.9884 24.61 15.5C24.61 15.0117 25.0123 14.6094 25.5007 14.6094ZM28.4619 14.6094C28.9502 14.6094 29.3525 15.0117 29.3525 15.5C29.3525 15.9884 28.9502 16.3906 28.4619 16.3906C27.9735 16.3906 27.5713 15.9884 27.5713 15.5C27.5713 15.0117 27.9735 14.6094 28.4619 14.6094Z" fill="white"/>
</svg>
