<svg width="45" height="45" viewBox="0 0 45 45" fill="none" xmlns="http://www.w3.org/2000/svg">
<path opacity="0.4" d="M44.2816 14.2067V26.343C44.2816 28.6012 42.546 30.4247 40.3966 30.4247H34.7991C34.2589 30.4247 33.7301 30.63 33.3278 30.9922L28.8797 34.9894C28.3395 35.4724 27.5579 35.4724 27.0177 34.9894L22.5695 30.9922C22.1672 30.63 21.6385 30.4247 21.0983 30.4247H15.5007C13.3513 30.4247 11.6157 28.6012 11.6157 26.343V14.2067C11.6157 11.9485 13.3513 10.125 15.5007 10.125H40.3966C42.546 10.125 44.2816 11.9485 44.2816 14.2067Z" fill="#B2B2B2"/>
<path d="M43.6659 12.9729V26.1236C43.6659 28.1041 42.1487 29.6981 40.2637 29.6981H33.942C33.5512 29.6981 33.1834 29.843 32.896 30.1087L28.3559 34.1783C27.7697 34.7096 26.8962 34.7096 26.31 34.1783L21.7699 30.1087C21.4825 29.843 21.1147 29.6981 20.7239 29.6981H14.4022C12.5172 29.6981 11 28.1041 11 26.1236V12.9729C11 11.0045 12.5172 9.39844 14.4022 9.39844H40.2637C42.1487 9.39844 43.6659 11.0045 43.6659 12.9729V12.9729Z" fill="#F44E66"/>
<path d="M27.5004 14.3438C24.6548 14.3438 22.3441 16.6545 22.3441 19.5003C22.3459 20.411 22.5933 21.3023 23.0518 22.0879L22.3529 24.1846C22.3081 24.319 22.436 24.4469 22.5704 24.4021L24.5758 23.7338C25.4354 24.3288 26.453 24.6547 27.5001 24.6562C30.3458 24.6562 32.6563 22.3457 32.6563 19.5C32.6563 16.6543 30.346 14.3438 27.5004 14.3438ZM25.7773 18.9844C26.06 18.9844 26.2929 19.2173 26.2929 19.5C26.2929 19.7828 26.06 20.0156 25.7773 20.0156C25.4946 20.0156 25.262 19.7828 25.262 19.5C25.262 19.2173 25.4945 18.9844 25.7773 18.9844ZM27.5004 18.9844C27.7831 18.9844 28.016 19.2173 28.016 19.5C28.016 19.7828 27.7831 20.0156 27.5004 20.0156C27.2177 20.0156 26.9848 19.7828 26.9848 19.5C26.9848 19.2173 27.2177 18.9844 27.5004 18.9844ZM29.2148 18.9844C29.4975 18.9844 29.7304 19.2173 29.7304 19.5C29.7304 19.7828 29.4975 20.0156 29.2148 20.0156C28.9321 20.0156 28.6992 19.7828 28.6992 19.5C28.6992 19.2173 28.9321 18.9844 29.2148 18.9844Z" fill="white"/>
</svg>
