<svg width="45" height="45" viewBox="0 0 45 45" fill="none" xmlns="http://www.w3.org/2000/svg">
<path opacity="0.4" d="M39.2811 14.2067V26.343C39.2811 28.6012 37.5455 30.4247 35.3962 30.4247H29.7986C29.2584 30.4247 28.7296 30.63 28.3274 30.9922L23.8792 34.9894C23.339 35.4724 22.5574 35.4724 22.0172 34.9894L17.569 30.9922C17.1667 30.63 16.638 30.4247 16.0978 30.4247H10.5002C8.35082 30.4247 6.61523 28.6012 6.61523 26.343V14.2067C6.61523 11.9485 8.35082 10.125 10.5002 10.125H35.3962C37.5455 10.125 39.2811 11.9485 39.2811 14.2067Z" fill="#B2B2B2"/>
<path d="M38.3622 12.9729V26.1236C38.3622 28.1041 36.845 29.6981 34.9599 29.6981H28.6383C28.2475 29.6981 27.8797 29.843 27.5923 30.1087L23.0522 34.1783C22.466 34.7096 21.5925 34.7096 21.0063 34.1783L16.4661 30.1087C16.1788 29.843 15.811 29.6981 15.4202 29.6981H9.09851C7.21349 29.6981 5.69629 28.1041 5.69629 26.1236V12.9729C5.69629 11.0045 7.21349 9.39844 9.09851 9.39844H34.9599C36.845 9.39844 38.3622 11.0045 38.3622 12.9729Z" fill="#F44E66"/>
<path fill-rule="evenodd" clip-rule="evenodd" d="M25.0884 17.2505C25.0884 18.9638 23.7147 20.3375 22.0003 20.3375C20.2864 20.3375 18.9121 18.9638 18.9121 17.2505C18.9121 15.5372 20.2864 14.1641 22.0003 14.1641C23.7147 14.1641 25.0884 15.5372 25.0884 17.2505ZM21.9997 25.8334C19.4694 25.8334 17.333 25.4222 17.333 23.8355C17.333 22.2482 19.4828 21.8516 21.9997 21.8516C24.5305 21.8516 26.6663 22.2628 26.6663 23.8495C26.6663 25.4368 24.5165 25.8334 21.9997 25.8334Z" fill="white"/>
</svg>
