<svg width="54" height="41" viewBox="0 0 54 41" fill="none" xmlns="http://www.w3.org/2000/svg">
<path opacity="0.4" d="M53.1046 8.09927V26.978C53.1046 30.4908 50.4048 33.3273 47.0613 33.3273H38.354C37.5137 33.3273 36.6912 33.6466 36.0654 34.2102L29.1461 40.4279C28.3057 41.1793 27.0899 41.1793 26.2496 40.4279L19.3302 34.2102C18.7044 33.6466 17.882 33.3273 17.0416 33.3273H8.33429C4.99082 33.3273 2.29102 30.4908 2.29102 26.978V8.09927C2.29102 4.58651 4.99082 1.75 8.33429 1.75H47.0613C50.4048 1.75 53.1046 4.58651 53.1046 8.09927Z" fill="#B2B2B2"/>
<path d="M51.6749 6.1814V26.6381C51.6749 29.7188 49.3148 32.1984 46.3826 32.1984H36.5488C35.9409 32.1984 35.3688 32.4238 34.9218 32.8371L27.8594 39.1675C26.9475 39.9941 25.5887 39.9941 24.6768 39.1675L17.6144 32.8371C17.1674 32.4238 16.5953 32.1984 15.9874 32.1984H6.15366C3.22142 32.1984 0.861328 29.7188 0.861328 26.6381V6.1814C0.861328 3.11948 3.22142 0.621094 6.15366 0.621094H46.3826C49.3148 0.621094 51.6749 3.11948 51.6749 6.1814V6.1814Z" fill="#F44E66"/>
<path fill-rule="evenodd" clip-rule="evenodd" d="M30.6912 12.7718C30.6912 15.0969 28.8269 16.9613 26.5001 16.9613C24.1741 16.9613 22.309 15.0969 22.309 12.7718C22.309 10.4466 24.1741 8.58301 26.5001 8.58301C28.8269 8.58301 30.6912 10.4466 30.6912 12.7718ZM26.5003 24.4188C23.0664 24.4188 20.167 23.8607 20.167 21.7074C20.167 19.5532 23.0846 19.0149 26.5003 19.0149C29.9351 19.0149 32.8337 19.573 32.8337 21.7264C32.8337 23.8805 29.9161 24.4188 26.5003 24.4188Z" fill="white"/>
</svg>
