<svg width="45" height="45" viewBox="0 0 45 45" fill="none" xmlns="http://www.w3.org/2000/svg">
<path opacity="0.4" d="M39.2816 14.2067V26.343C39.2816 28.6012 37.546 30.4247 35.3966 30.4247H29.7991C29.2589 30.4247 28.7301 30.63 28.3278 30.9922L23.8797 34.9894C23.3395 35.4724 22.5579 35.4724 22.0177 34.9894L17.5695 30.9922C17.1672 30.63 16.6385 30.4247 16.0983 30.4247H10.5007C8.35131 30.4247 6.61572 28.6012 6.61572 26.343V14.2067C6.61572 11.9485 8.35131 10.125 10.5007 10.125H35.3966C37.546 10.125 39.2816 11.9485 39.2816 14.2067Z" fill="#B2B2B2"/>
<path d="M38.6659 12.9729V26.1236C38.6659 28.1041 37.1487 29.6981 35.2637 29.6981H28.942C28.5512 29.6981 28.1834 29.843 27.896 30.1087L23.3559 34.1783C22.7697 34.7096 21.8962 34.7096 21.31 34.1783L16.7699 30.1087C16.4825 29.843 16.1147 29.6981 15.7239 29.6981H9.40222C7.5172 29.6981 6 28.1041 6 26.1236V12.9729C6 11.0045 7.5172 9.39844 9.40222 9.39844H35.2637C37.1487 9.39844 38.6659 11.0045 38.6659 12.9729V12.9729Z" fill="#F44E66"/>
<path d="M22.0001 22.1583C23.1904 22.1583 24.1554 21.1933 24.1554 20.003C24.1554 18.8126 23.1904 17.8477 22.0001 17.8477C20.8097 17.8477 19.8447 18.8126 19.8447 20.003C19.8447 21.1933 20.8097 22.1583 22.0001 22.1583Z" fill="white"/>
<path d="M28.7853 19.4057C27.1285 17.4037 24.6207 15.4766 22 15.4766C19.3789 15.4766 16.8704 17.405 15.2148 19.4057C14.9284 19.7516 14.9284 20.2538 15.2148 20.5998C15.631 21.1028 16.5037 22.0737 17.6692 22.9221C20.6044 25.0589 23.3892 25.0636 26.3309 22.9221C27.4964 22.0737 28.369 21.1028 28.7853 20.5998C29.0708 20.2545 29.0723 19.7528 28.7853 19.4057ZM22 16.9853C23.6639 16.9853 25.0175 18.3388 25.0175 20.0027C25.0175 21.6667 23.6639 23.0202 22 23.0202C20.3361 23.0202 18.9826 21.6667 18.9826 20.0027C18.9826 18.3388 20.3361 16.9853 22 16.9853Z" fill="white"/>
</svg>
