<svg width="53" height="40" viewBox="0 0 53 40" fill="none" xmlns="http://www.w3.org/2000/svg">
<path opacity="0.4" d="M52.1046 7.09927V25.978C52.1046 29.4908 49.4048 32.3273 46.0613 32.3273H37.354C36.5137 32.3273 35.6912 32.6466 35.0654 33.2102L28.1461 39.4279C27.3057 40.1793 26.0899 40.1793 25.2496 39.4279L18.3302 33.2102C17.7044 32.6466 16.882 32.3273 16.0416 32.3273H7.33429C3.99082 32.3273 1.29102 29.4908 1.29102 25.978V7.09927C1.29102 3.58651 3.99082 0.75 7.33429 0.75H46.0613C49.4048 0.75 52.1046 3.58651 52.1046 7.09927Z" fill="#B2B2B2"/>
<path d="M50.8136 5.56031V26.017C50.8136 29.0977 48.4535 31.5773 45.5212 31.5773H35.6875C35.0796 31.5773 34.5075 31.8027 34.0605 32.216L26.9981 38.5464C26.0862 39.373 24.7274 39.373 23.8155 38.5464L16.7531 32.216C16.3061 31.8027 15.734 31.5773 15.1261 31.5773H5.29234C2.3601 31.5773 0 29.0977 0 26.017V5.56031C0 2.49838 2.3601 0 5.29234 0H45.5212C48.4535 0 50.8136 2.49838 50.8136 5.56031Z" fill="#F44E66"/>
<path d="M25.5003 18.4283C27.1158 18.4283 28.4254 17.1187 28.4254 15.5032C28.4254 13.8877 27.1158 12.5781 25.5003 12.5781C23.8848 12.5781 22.5752 13.8877 22.5752 15.5032C22.5752 17.1187 23.8848 18.4283 25.5003 18.4283Z" fill="white"/>
<path d="M34.7086 14.6918C32.4601 11.9748 29.0566 9.35938 25.5 9.35938C21.9428 9.35938 18.5384 11.9766 16.2915 14.6918C15.9028 15.1613 15.9028 15.8428 16.2915 16.3123C16.8564 16.9949 18.0407 18.3127 19.6224 19.4641C23.606 22.364 27.3853 22.3704 31.3776 19.4641C32.9594 18.3127 34.1437 16.9949 34.7086 16.3123C35.0961 15.8437 35.0981 15.1628 34.7086 14.6918ZM25.5 11.4069C27.7582 11.4069 29.5952 13.2439 29.5952 15.5021C29.5952 17.7602 27.7582 19.5972 25.5 19.5972C23.2419 19.5972 21.4049 17.7602 21.4049 15.5021C21.4049 13.2439 23.2419 11.4069 25.5 11.4069Z" fill="white"/>
</svg>
